# This file uses centimeters as units for non-parametric coordinates.

mtllib Hangar.mtl
g default
v 21.784901 12.504515 -3.797094
v 21.784901 12.124262 -7.222502
v 21.784901 11.532005 -9.940921
v 21.784901 10.785720 -11.686253
v 21.784901 9.958454 -12.287653
v 21.784901 9.958454 12.287649
v 21.784901 10.785720 11.686247
v 21.784901 11.532004 9.940915
v 21.784901 12.124260 7.222498
v 21.784901 12.504512 3.797092
v 21.784901 12.635539 0.000000
v -21.784901 12.504515 -3.797094
v -21.784901 12.124262 -7.222502
v -21.784901 11.532005 -9.940921
v -21.784901 10.785720 -11.686253
v -21.784901 9.958454 -12.287653
v -21.784901 9.958454 12.287649
v -21.784901 10.785720 11.686247
v -21.784901 11.532004 9.940915
v -21.784901 12.124260 7.222498
v -21.784901 12.504512 3.797092
v -21.784901 12.635539 0.000000
v 21.784901 9.958454 0.000000
v -21.784901 9.958454 0.000000
v 21.784901 0.068175 -12.287653
v -21.784901 0.068175 -12.287653
v 21.784901 0.068175 0.000000
v 21.784901 0.068175 12.287649
v -21.784901 0.068175 12.287649
v -21.784901 0.068175 0.000000
v 21.784901 6.199001 -12.287653
v 21.784901 7.776202 12.287649
v -21.784901 7.776202 12.287649
v -21.784901 6.199001 0.000000
v -21.784901 6.199001 -12.287653
v 21.784901 5.556045 23.056056
v -21.784901 5.556045 23.056056
v -21.784901 0.068175 23.056056
v 21.784901 0.068175 23.056056
v 21.784901 4.789205 23.056056
v 21.784901 4.733371 12.287649
v 21.784901 0.068175 20.915219
v 21.784901 4.777745 20.845635
v 21.784901 0.068175 14.038762
v 21.784901 4.742478 14.044185
v 21.545044 0.068175 14.038762
v 21.545044 4.742478 14.044185
v 21.545044 4.777745 20.845635
v 21.545044 0.068175 20.915219
v 21.784901 9.018351 12.287649
v 21.784901 8.999268 0.000000
v 21.784901 8.980185 -12.287653
v 21.784901 0.068175 10.493861
v 21.784901 9.015305 10.326528
v 21.784901 0.068175 -10.461757
v 21.784901 8.983213 -10.337861
v 21.784901 9.010381 7.155985
v 21.784901 0.068175 7.380448
v 21.784901 9.004793 3.557555
v 21.784901 0.068175 3.715369
v 21.784901 8.994340 -3.172855
v 21.784901 0.068175 -3.169107
v 21.784901 0.068175 -6.825984
v 21.784901 8.988764 -6.763340
v 21.569261 6.199001 0.035764
v 21.569261 0.068175 0.035764
v 20.617752 0.068175 -3.204197
v 20.618277 8.994340 -3.207907
v 21.569261 8.999268 0.035764
v 20.603573 9.004793 3.532459
v 20.587339 0.068175 3.689436
v 20.758450 0.068175 10.457735
v 20.793076 9.015305 10.294025
v 21.575901 0.068175 7.392495
v 21.602369 9.010381 7.169597
v 21.628605 0.068175 -6.796514
v 21.620675 8.988764 -6.734374
v 20.952368 0.068175 -10.440226
v 20.962422 8.983213 -10.316738
v 21.545044 4.760101 17.442944
v 21.545044 0.068175 17.491913
v -21.784901 9.359700 -12.287653
v 21.784901 9.084676 -12.287653
v 21.784901 8.072810 -12.287653
v -21.784901 8.357795 -12.287653
v 13.548177 9.106060 -12.287650
v 13.602858 8.094611 -12.287650
v 13.943351 9.134174 -12.287653
v 13.877777 8.124529 -12.287653
vt 0.029895 0.512529
vt 0.029895 0.512529
vt 0.036030 0.512529
vt 0.029895 0.512529
vt 0.036030 0.512529
vt 0.029895 0.512529
vt 0.029895 0.512529
vt 0.036030 0.512529
vt 0.288861 0.512529
vt 0.318949 0.512529
vt 0.288861 0.728394
vt 0.318949 0.728394
vt 0.255507 0.728394
vt 0.342827 0.512529
vt 0.255507 0.512529
vt 0.342827 0.728394
vt 0.222154 0.728394
vt 0.222154 0.512529
vt 0.192066 0.728394
vt 0.192066 0.512529
vt 0.168188 0.728394
vt 0.168188 0.512529
vt 0.564827 0.822982
vt 0.348962 0.822982
vt 0.564827 0.715050
vt 0.348962 0.806944
vt 0.348962 0.775008
vt 0.348962 0.742886
vt 0.348962 0.715050
vt 0.348962 0.682415
vt 0.564827 0.607117
vt 0.348962 0.650221
vt 0.348962 0.622873
vt 0.348962 0.607117
vt 0.564827 0.512529
vt 0.348962 0.591735
vt 0.348962 0.531334
vt 0.348962 0.512529
vt 0.042166 0.572272
vt 0.042166 0.512529
vt 0.043354 0.572272
vt 0.043354 0.542418
vt 0.043354 0.512529
vt 0.049489 0.572931
vt 0.049489 0.512529
vt 0.050678 0.572931
vt 0.050678 0.542861
vt 0.050678 0.512529
vt 0.074936 0.604423
vt 0.074936 0.576587
vt 0.076004 0.604737
vt 0.080718 0.576278
vt 0.074936 0.637058
vt 0.075710 0.544724
vt 0.080869 0.636831
vt 0.074936 0.544465
vt 0.075971 0.669358
vt 0.079061 0.512718
vt 0.074936 0.669252
vt 0.074936 0.512529
vt 0.074936 0.696600
vt 0.080021 0.696282
vt 0.062948 0.603236
vt 0.064017 0.602921
vt 0.062948 0.631106
vt 0.062948 0.571987
vt 0.068728 0.631413
vt 0.068801 0.572207
vt 0.063762 0.662389
vt 0.063852 0.540259
vt 0.062948 0.662644
vt 0.062948 0.540379
vt 0.067023 0.693856
vt 0.062948 0.512529
vt 0.062948 0.694042
vt 0.067862 0.512815
vt 0.046483 0.022470
vt 0.076572 0.007139
vt 0.109925 0.109789
vt 0.109925 0.001857
vt 0.022605 0.046348
vt 0.143278 0.007139
vt 0.007275 0.076436
vt 0.173366 0.022470
vt 0.001992 0.109789
vt 0.197244 0.046348
vt 0.019118 0.149108
vt 0.212575 0.076436
vt 0.050517 0.148884
vt 0.001992 0.149230
vt 0.217857 0.109789
vt 0.082055 0.148660
vt 0.018030 0.508538
vt 0.141173 0.148238
vt 0.109925 0.148461
vt 0.001992 0.185813
vt 0.172782 0.148013
vt 0.001992 0.508538
vt 0.200631 0.147814
vt 0.217857 0.147692
vt 0.217857 0.197772
vt 0.217857 0.320450
vt 0.202101 0.508538
vt 0.312445 0.287282
vt 0.217857 0.508538
vt 0.233286 0.320083
vt 0.233239 0.508538
vt 0.293029 0.318661
vt 0.312445 0.318199
vt 0.312445 0.508538
vt 0.293640 0.508538
vt 0.555740 0.007139
vt 0.585828 0.022470
vt 0.522387 0.109789
vt 0.609706 0.046348
vt 0.522387 0.001857
vt 0.625037 0.076436
vt 0.489034 0.007139
vt 0.630320 0.109789
vt 0.458946 0.022470
vt 0.630320 0.133929
vt 0.435068 0.046348
vt 0.630320 0.174323
vt 0.419737 0.076436
vt 0.522387 0.261359
vt 0.414454 0.109789
vt 0.414454 0.197771
vt 0.522387 0.508538
vt 0.414454 0.508538
vt 0.630320 0.508538
vt 0.319866 0.287282
vt 0.319866 0.508538
vt 0.101652 0.702406
vt 0.101699 0.513951
vt 0.131984 0.702406
vt 0.131553 0.513241
vt 0.162053 0.702406
vt 0.161442 0.512529
vt 0.684463 0.873253
vt 0.656004 0.873253
vt 0.684463 0.626075
vt 0.655971 0.513374
vt 0.716556 0.873253
vt 0.624995 0.513599
vt 0.684463 0.513176
vt 0.624450 0.873253
vt 0.715177 0.512953
vt 0.593528 0.513823
vt 0.749083 0.873253
vt 0.592444 0.873253
vt 0.747125 0.512728
vt 0.776008 0.873253
vt 0.774570 0.512529
vt 0.853410 0.001857
vt 0.853410 0.031945
vt 0.637545 0.001857
vt 0.637545 0.031945
vt 0.853410 0.065298
vt 0.637545 0.065298
vt 0.814560 0.098531
vt 0.853410 0.100526
vt 0.637545 0.089438
vt 0.812602 0.099665
vt 0.814234 0.139237
vt 0.637545 0.129832
vt 0.853410 0.141322
vt 0.812872 0.140443
vt 0.637545 0.464046
vt 0.853410 0.464046
vt 0.782143 0.531479
vt 0.782143 0.498126
vt 0.998008 0.531479
vt 0.998008 0.498126
vt 0.782143 0.569381
vt 0.782143 0.468038
vt 0.998008 0.619461
vt 0.998008 0.468038
vt 0.782143 0.619461
vt 0.782143 0.708972
vt 0.998008 0.708972
vt 0.782143 0.739889
vt 0.998008 0.930227
vt 0.782143 0.930227
vt 0.087004 0.700984
vt 0.087004 0.512529
vt 0.088193 0.700984
vt 0.088193 0.512529
vt 0.095516 0.512530
vt 0.095516 0.702406
vt 0.094328 0.512530
vt 0.094328 0.702406
vt 0.056813 0.624660
vt 0.056813 0.512530
vt 0.056813 0.549113
vt 0.586308 0.512530
vt 0.586308 0.873253
vt 0.581394 0.512530
vt 0.581223 0.873253
vt 0.570963 0.871959
vt 0.570963 0.512529
vt 0.575087 0.871959
vt 0.575038 0.512529
vn 0.000000 0.997504 -0.070613
vn 0.000000 0.987703 -0.156344
vn 0.000000 0.997504 -0.070613
vn 0.000000 0.987703 -0.156344
vn 0.000000 0.957861 -0.287233
vn 0.000000 0.957861 -0.287233
vn 0.000000 0.830567 -0.556919
vn 0.000000 0.830567 -0.556919
vn 0.000000 0.588013 -0.808852
vn 0.000000 0.588014 -0.808851
vn 0.000000 0.588015 0.808850
vn 0.000000 0.830567 0.556918
vn 0.000000 0.588015 0.808850
vn 0.000000 0.830567 0.556918
vn 0.000000 0.957861 0.287233
vn 0.000000 0.957861 0.287233
vn 0.000000 0.987703 0.156344
vn 0.000000 0.987703 0.156344
vn 0.000000 0.997504 0.070613
vn 0.000000 0.997504 0.070613
vn 0.000000 1.000000 0.000001
vn 0.000000 1.000000 0.000001
vn 1.000000 -0.000000 0.000000
vn 1.000000 -0.000000 0.000000
vn 1.000000 -0.000000 0.000000
vn 1.000000 -0.000000 0.000000
vn 1.000000 -0.000000 0.000000
vn 1.000000 -0.000000 0.000000
vn 1.000000 -0.000000 0.000000
vn 1.000000 -0.000000 0.000000
vn 1.000000 -0.000000 0.000000
vn 1.000000 -0.000000 0.000000
vn 1.000000 -0.000000 0.000000
vn 1.000000 -0.000000 0.000000
vn -1.000000 0.000000 0.000000
vn -1.000000 0.000000 0.000000
vn -1.000000 0.000000 0.000000
vn -1.000000 0.000000 0.000000
vn -1.000000 0.000000 0.000000
vn -1.000000 0.000000 0.000000
vn -1.000000 0.000000 0.000000
vn -1.000000 0.000000 0.000000
vn -1.000000 0.000000 -0.000000
vn -1.000000 0.000000 -0.000000
vn -1.000000 0.000000 0.000000
vn -1.000000 0.000000 0.000000
vn -0.000000 -1.000000 0.000000
vn -0.000000 -1.000000 0.000000
vn -0.000000 -1.000000 0.000000
vn -0.000000 -1.000000 0.000000
vn -0.000000 -1.000000 0.000000
vn -0.000000 -1.000000 0.000000
vn -0.000000 -1.000000 0.000000
vn -0.000000 -1.000000 0.000000
vn -0.000000 -1.000000 0.000000
vn -0.000000 -1.000000 0.000000
vn 0.000000 -1.000000 0.000000
vn -0.000000 -1.000000 0.000000
vn 0.000000 0.000000 0.000000
vn 0.000000 -0.000000 -1.000000
vn 0.000000 0.000000 -1.000000
vn 0.000000 0.000000 0.000000
vn -0.000000 0.000000 -1.000000
vn -0.000000 0.000001 -1.000000
vn -0.000000 -0.000001 -1.000000
vn -0.000000 -0.000002 -1.000000
vn -0.000000 -0.000000 -1.000000
vn -0.000000 0.000001 -1.000000
vn 1.000000 -0.000000 0.000000
vn 1.000000 -0.000000 0.000000
vn 1.000000 -0.000000 0.000000
vn 1.000000 -0.000000 0.000000
vn 1.000000 -0.000000 0.000000
vn 1.000000 -0.000000 0.000000
vn 1.000000 -0.000000 0.000000
vn 1.000000 -0.000000 0.000000
vn 1.000000 -0.000000 0.000000
vn 0.000000 0.000000 1.000000
vn 0.000000 0.000000 1.000000
vn 0.000000 0.000000 1.000000
vn 0.000000 0.000000 1.000000
vn 0.000000 0.000000 1.000000
vn -1.000000 0.000000 0.000000
vn -1.000000 0.000000 0.000000
vn -1.000000 0.000000 0.000000
vn -1.000000 0.000000 0.000000
vn 0.000000 0.000000 0.000000
vn -1.000000 0.000000 -0.000000
vn -1.000000 0.000000 0.000000
vn -1.000000 0.000000 0.000000
vn 0.000000 0.000000 1.000000
vn 0.000000 0.000000 1.000000
vn 0.000000 0.000000 1.000000
vn 0.000000 0.000000 1.000000
vn 0.000000 0.000000 1.000000
vn 0.000000 0.979401 0.201926
vn 0.000000 0.979401 0.201926
vn 0.000000 0.979401 0.201926
vn 0.000000 0.979401 0.201926
vn -1.000000 0.000000 0.000000
vn -1.000000 0.000000 0.000000
vn -0.000000 -1.000000 0.000000
vn -0.000000 -1.000000 0.000000
vn -0.000000 -1.000000 0.000000
vn -0.000000 -1.000000 0.000000
vn 1.000000 -0.000000 0.000000
vn 1.000000 -0.000000 0.000000
vn 1.000000 -0.000000 0.000000
vn 1.000000 -0.000000 0.000000
vn 1.000000 -0.000000 0.000000
vn 1.000000 -0.000000 0.000000
vn 1.000000 -0.000000 0.000000
vn 1.000000 -0.000000 -0.000000
vn 1.000000 -0.000000 -0.000000
vn 1.000000 -0.000000 0.000000
vn 1.000000 -0.000000 0.000000
vn 1.000000 -0.000000 0.000000
vn 1.000000 -0.000000 0.000000
vn 1.000000 -0.000000 0.000000
vn -0.000000 -0.001160 0.999999
vn -0.000000 -0.001160 0.999999
vn -0.000000 -0.001160 0.999999
vn -0.000000 -0.001160 0.999999
vn -0.000000 -0.999987 0.005185
vn 0.000000 -0.999987 0.005185
vn 0.000000 -0.999987 0.005185
vn 0.000005 -0.999987 0.005185
vn -0.000000 -0.999986 0.005185
vn -0.000000 -0.014774 -0.999891
vn -0.000000 -0.014773 -0.999891
vn -0.000000 -0.014774 -0.999891
vn -0.000000 -0.014773 -0.999891
vn 0.000000 1.000000 0.000000
vn 0.000000 1.000000 0.000000
vn 0.000000 1.000000 0.000000
vn 0.000000 1.000000 0.000000
vn 0.000000 1.000000 0.000000
vn 1.000000 -0.000000 0.000000
vn 0.999990 -0.000000 0.004412
vn 0.998393 -0.000621 0.056666
vn 0.991206 -0.000121 -0.132331
vn 0.989674 0.002266 0.143322
vn 0.992695 0.000023 0.120648
vn 0.999981 -0.003431 -0.005208
vn 0.998739 -0.003777 -0.050070
vn 0.000000 0.000000 0.000000
vn 0.000000 0.000000 -0.000000
vn 1.000000 -0.000000 0.000011
vn 1.000000 -0.000000 0.000000
vn 1.000000 -0.000000 0.000000
vn 0.968053 0.000842 0.250745
vn 0.966317 0.003427 0.257331
vn 0.999607 -0.004804 -0.027607
vn 0.999700 -0.001969 -0.024392
vn 0.998761 0.001082 0.049744
vn 0.998932 0.000215 0.046199
vn 0.983513 0.002092 -0.180826
vn 0.983209 0.001419 -0.182475
vn -0.000002 1.000000 0.000000
vn 0.000001 1.000000 0.000000
vn -0.000000 1.000000 0.000000
vn 0.000001 1.000000 0.000000
vn 0.000258 -0.999999 0.001553
vn 0.000137 -0.999999 0.001553
vn -0.000046 -0.999999 0.001551
vn -0.000047 -0.999999 0.001552
vn -0.000000 1.000000 0.000000
vn -0.000000 1.000000 0.000000
vn -0.000032 -0.999999 0.001558
vn -0.000033 -0.999999 0.001558
vn 0.032748 -0.018689 -0.999289
vn 0.035147 -0.018421 -0.999212
vn 0.032770 -0.018687 -0.999288
vn 0.035167 -0.018419 -0.999212
vn -0.000000 1.000000 0.000000
vn -0.000000 1.000000 0.000000
vn -0.000000 1.000000 0.000000
vn -0.000000 1.000000 0.000000
vn 0.000116 -0.999999 0.001553
vn -0.000051 -0.999999 0.001563
vn 0.000051 -0.999999 0.001553
vn -0.000051 -0.999999 0.001563
vn -0.000005 1.000000 0.000000
vn -0.000004 1.000000 0.000000
vn 0.000229 -0.999999 0.001528
vn 0.000180 -0.999999 0.001541
vn 0.000003 1.000000 0.000000
vn 0.000003 1.000000 0.000000
vn 0.025851 -0.013892 0.999569
vn 0.025672 -0.013875 0.999574
vn 0.025850 -0.013891 0.999569
vn 0.025670 -0.013875 0.999574
vn 0.000040 -0.999999 0.001553
vn 0.000041 -0.999999 0.001553
vn 1.000000 -0.000000 0.000000
vn 1.000000 -0.000000 0.000000
vn 0.000000 0.000000 0.000000
vn 0.000000 0.000000 -1.000000
vn 0.000000 0.000000 -1.000000
vn 0.000000 0.000000 -1.000000
vn 0.000000 0.000000 -1.000000
s 1
g pCylinder1
usemtl initialShadingGroup
f 1/9/1 2/10/2 12/11/3
f 12/11/3 2/10/2 13/12/4
f 2/10/2 3/14/5 13/12/4
f 13/12/4 3/14/5 14/16/6
f 3/154/5 4/155/7 14/156/6
f 14/156/6 4/155/7 15/157/8
f 4/155/7 5/158/9 15/157/8
f 15/157/8 5/158/9 16/159/10
f 6/170/11 7/171/12 17/172/13
f 17/172/13 7/171/12 18/173/14
f 7/171/12 8/175/15 18/173/14
f 18/173/14 8/175/15 19/177/16
f 8/22/15 9/20/17 19/21/16
f 19/21/16 9/20/17 20/19/18
f 9/20/17 10/18/19 20/19/18
f 20/19/18 10/18/19 21/17/20
f 10/18/19 11/15/21 21/17/20
f 21/17/20 11/15/21 22/13/22
f 11/15/21 1/9/1 22/13/22
f 22/13/22 1/9/1 12/11/3
s 3
f 2/77/23 1/78/24 23/79/25
f 3/81/26 2/77/23 23/79/25
f 4/83/27 3/81/26 23/79/25
f 5/85/28 4/83/27 23/79/25
f 7/88/29 6/91/30 23/79/25
f 8/86/31 7/88/29 23/79/25
f 9/84/32 8/86/31 23/79/25
f 10/82/33 9/84/32 23/79/25
f 11/80/34 10/82/33 23/79/25
f 1/78/24 11/80/34 23/79/25
s 5
f 12/112/35 13/113/36 24/114/37
f 13/113/36 14/115/38 24/114/37
f 14/115/38 15/117/39 24/114/37
f 15/117/39 16/119/40 24/114/37
f 17/126/41 18/124/42 24/114/37
f 18/124/42 19/122/43 24/114/37
f 19/122/43 20/120/44 24/114/37
f 20/120/44 21/118/45 24/114/37
f 21/118/45 22/116/46 24/114/37
f 22/116/46 12/112/35 24/114/37
s 7
f 26/23/47 25/24/48 30/25/49
f 25/24/48 55/26/50 30/25/49
f 55/26/50 63/27/51 30/25/49
f 63/27/51 62/28/52 30/25/49
f 62/28/52 27/29/53 30/25/49
f 27/29/53 60/30/54 30/25/49
f 30/25/49 60/30/54 29/31/55
f 60/30/54 58/32/56 29/31/55
f 58/32/56 53/33/57 29/31/55
f 53/33/57 28/34/58 29/31/55
s 5
f 35/3/59 82/5/60 85/8/61
s 9
f 31/2/62 84/7/63 83/6/64
f 88/160/65 86/163/66 82/162/60
f 87/167/67 89/164/68 84/166/63
f 82/162/60 86/163/66 85/165/61
f 85/165/61 86/163/66 89/164/68
f 86/163/66 83/161/64 89/164/68
f 89/164/68 83/161/64 84/166/63
s 3
f 52/90/69 5/85/28 56/87/70
f 5/85/28 23/79/25 56/87/70
f 56/87/70 23/79/25 64/89/71
f 64/89/71 23/79/25 61/92/72
f 51/95/73 61/92/72 23/79/25
f 51/95/73 23/79/25 59/94/74
f 23/79/25 6/91/30 59/94/74
f 59/94/74 6/91/30 57/97/75
f 57/97/75 6/91/30 54/99/76
f 50/100/77 54/99/76 6/91/30
s 12
f 36/179/78 37/180/79 40/181/80
f 37/180/79 38/182/81 40/181/80
f 38/182/81 39/183/82 40/181/80
s 5
f 30/128/83 29/129/84 34/125/85
f 29/129/84 33/127/86 34/125/85
f 34/125/85 33/127/86 24/114/37
f 33/127/86 17/126/41 24/114/37
s 9
f 35/3/87 85/8/88 82/5/89
s 5
f 26/130/90 30/128/83 85/123/88
f 30/128/83 34/125/85 85/123/88
f 34/125/85 24/114/37 85/123/88
f 85/123/88 24/114/37 82/121/89
f 24/114/37 16/119/40 82/121/89
s 14
f 6/170/91 17/172/92 50/174/93
f 17/172/92 33/176/94 50/174/93
f 33/176/94 32/178/95 50/174/93
s 15
f 32/178/96 33/176/97 36/179/98
f 36/179/98 33/176/97 37/180/99
s 5
f 33/127/86 29/129/84 37/131/100
f 37/131/100 29/129/84 38/132/101
s 7
f 29/31/55 28/34/58 38/35/102
f 28/34/58 44/36/103 38/35/102
f 39/38/104 38/35/102 42/37/105
f 44/36/103 42/37/105 38/35/102
s 3
f 32/101/106 36/104/107 41/102/108
f 28/105/109 41/102/108 44/107/110
f 44/107/110 41/102/108 45/106/111
f 41/102/108 36/104/107 45/106/111
f 45/106/111 36/104/107 43/108/112
f 36/104/107 40/109/113 43/108/112
f 40/109/113 39/110/114 43/108/112
f 43/108/112 39/110/114 42/111/115
s 18
f 46/133/116 47/134/117 81/135/118
f 81/135/118 47/134/117 80/136/119
s 19
f 44/184/120 45/185/121 46/186/122
f 46/186/122 45/185/121 47/187/123
s 20
f 45/39/124 43/40/125 47/41/126
f 47/41/126 43/40/125 80/42/127
f 43/40/125 48/43/128 80/42/127
s 21
f 43/188/129 42/189/130 48/190/131
f 48/190/131 42/189/130 49/191/132
s 22
f 42/44/133 44/45/134 49/46/135
f 49/46/135 44/45/134 81/47/136
f 44/45/134 46/48/137 81/47/136
s 3
f 28/105/109 53/103/138 41/102/108
f 53/103/138 54/99/76 41/102/108
f 41/102/108 54/99/76 32/101/106
f 32/101/106 54/99/76 50/100/77
s 23
f 66/139/139 67/140/140 65/141/141
f 69/145/142 65/141/141 68/142/143
f 65/141/141 67/140/140 68/142/143
f 70/147/144 71/143/145 69/145/142
f 69/145/142 71/143/145 65/141/141
f 71/143/145 66/139/139 65/141/141
s 3
f 83/6/146 52/4/69 31/2/147
f 31/192/147 52/193/69 84/194/148
f 56/87/70 55/93/149 52/90/69
f 52/90/69 55/93/149 84/96/148
f 55/93/149 25/98/150 84/96/148
s 23
f 73/153/151 72/152/152 75/151/153
f 75/151/153 72/152/152 74/149/154
f 75/151/153 74/149/154 70/147/144
f 70/147/144 74/149/154 71/143/145
f 68/142/143 67/140/140 77/144/155
f 77/144/155 67/140/140 76/146/156
f 77/144/155 76/146/156 79/148/157
f 79/148/157 76/146/156 78/150/158
s 28
f 27/49/159 62/50/160 66/51/161
f 66/51/161 62/50/160 67/52/162
s 29
f 51/63/163 69/64/164 61/65/165
f 61/65/165 69/64/164 68/67/166
s 28
f 27/49/159 66/51/161 60/53/167
f 60/53/167 66/51/161 71/55/168
s 29
f 51/63/163 59/66/169 69/64/164
f 69/64/164 59/66/169 70/68/170
s 30
f 54/195/171 53/196/172 73/197/173
f 73/197/173 53/196/172 72/198/174
s 28
f 58/59/175 74/57/176 53/61/177
f 53/61/177 74/57/176 72/62/178
s 29
f 57/72/179 54/74/180 75/70/181
f 75/70/181 54/74/180 73/76/182
s 28
f 58/59/175 60/53/167 74/57/176
f 74/57/176 60/53/167 71/55/168
s 29
f 57/72/179 75/70/181 59/66/169
f 59/66/169 75/70/181 70/68/170
s 28
f 63/56/183 76/54/184 62/50/160
f 62/50/160 76/54/184 67/52/162
s 29
f 64/71/185 61/65/165 77/69/186
f 77/69/186 61/65/165 68/67/166
s 28
f 55/60/187 78/58/188 63/56/183
f 63/56/183 78/58/188 76/54/184
s 34
f 55/199/189 56/200/190 78/201/191
f 78/201/191 56/200/190 79/202/192
s 29
f 56/75/193 64/71/185 79/73/194
f 79/73/194 64/71/185 77/69/186
s 18
f 81/135/118 80/136/119 49/137/195
f 49/137/195 80/136/119 48/138/196
s 9
f 52/4/197 83/6/64 5/1/198
f 86/163/66 88/160/65 83/161/64
f 83/161/64 88/160/65 5/158/198
f 5/158/198 88/160/65 16/159/199
f 88/160/65 82/162/60 16/159/199
f 89/164/68 87/167/67 85/165/61
f 85/165/61 87/167/67 26/168/200
f 25/169/201 26/168/200 84/166/63
f 87/167/67 84/166/63 26/168/200
